<mxfile host="app.diagrams.net" agent="Mozilla/5.0 (Macintosh; Intel Mac OS X 10_15_7) AppleWebKit/537.36 (KHTML, like Gecko) Chrome/128.0.0.0 Safari/537.36" version="24.7.12">
  <diagram id="C5RBs43oDa-KdzZeNtuy" name="Page-1">
    <mxGraphModel dx="1025" dy="650" grid="1" gridSize="10" guides="1" tooltips="1" connect="1" arrows="1" fold="1" page="1" pageScale="1" pageWidth="827" pageHeight="1169" math="0" shadow="0">
      <root>
        <mxCell id="WIyWlLk6GJQsqaUBKTNV-0" />
        <mxCell id="WIyWlLk6GJQsqaUBKTNV-1" parent="WIyWlLk6GJQsqaUBKTNV-0" />
        <mxCell id="rzwKQrilAwkcrNIspmXl-10" value="" style="edgeStyle=orthogonalEdgeStyle;rounded=0;orthogonalLoop=1;jettySize=auto;html=1;" edge="1" parent="WIyWlLk6GJQsqaUBKTNV-1" source="WIyWlLk6GJQsqaUBKTNV-3" target="rzwKQrilAwkcrNIspmXl-2">
          <mxGeometry relative="1" as="geometry" />
        </mxCell>
        <mxCell id="WIyWlLk6GJQsqaUBKTNV-3" value="Find Data and Specify Features (X) and Target Variable (y)" style="rounded=1;whiteSpace=wrap;html=1;fontSize=12;glass=0;strokeWidth=1;shadow=0;" parent="WIyWlLk6GJQsqaUBKTNV-1" vertex="1">
          <mxGeometry x="344" y="70" width="140" height="50" as="geometry" />
        </mxCell>
        <mxCell id="rzwKQrilAwkcrNIspmXl-0" value="Diagram for Performing Lowess with Multiple Features" style="rounded=0;whiteSpace=wrap;html=1;" vertex="1" parent="WIyWlLk6GJQsqaUBKTNV-1">
          <mxGeometry x="70" y="30" width="210" height="120" as="geometry" />
        </mxCell>
        <mxCell id="rzwKQrilAwkcrNIspmXl-11" value="" style="edgeStyle=orthogonalEdgeStyle;rounded=0;orthogonalLoop=1;jettySize=auto;html=1;" edge="1" parent="WIyWlLk6GJQsqaUBKTNV-1" source="rzwKQrilAwkcrNIspmXl-2" target="rzwKQrilAwkcrNIspmXl-6">
          <mxGeometry relative="1" as="geometry" />
        </mxCell>
        <mxCell id="rzwKQrilAwkcrNIspmXl-2" value="Specify the hyperparameters &lt;b&gt;kernel &lt;/b&gt;and &lt;b&gt;tau&lt;/b&gt;&amp;nbsp;&lt;div&gt;(&lt;i&gt;model=Lowess(kernel,tau))&lt;/i&gt;&lt;/div&gt;" style="rounded=0;whiteSpace=wrap;html=1;" vertex="1" parent="WIyWlLk6GJQsqaUBKTNV-1">
          <mxGeometry x="324" y="160" width="180" height="70" as="geometry" />
        </mxCell>
        <mxCell id="rzwKQrilAwkcrNIspmXl-13" value="" style="edgeStyle=orthogonalEdgeStyle;rounded=0;orthogonalLoop=1;jettySize=auto;html=1;" edge="1" parent="WIyWlLk6GJQsqaUBKTNV-1" source="rzwKQrilAwkcrNIspmXl-6" target="rzwKQrilAwkcrNIspmXl-12">
          <mxGeometry relative="1" as="geometry" />
        </mxCell>
        <mxCell id="rzwKQrilAwkcrNIspmXl-6" value="Separate the model into &lt;b&gt;train&lt;/b&gt; and&lt;b&gt; test &lt;/b&gt;data" style="rounded=0;whiteSpace=wrap;html=1;" vertex="1" parent="WIyWlLk6GJQsqaUBKTNV-1">
          <mxGeometry x="354" y="290" width="120" height="60" as="geometry" />
        </mxCell>
        <mxCell id="rzwKQrilAwkcrNIspmXl-20" value="" style="edgeStyle=orthogonalEdgeStyle;rounded=0;orthogonalLoop=1;jettySize=auto;html=1;" edge="1" parent="WIyWlLk6GJQsqaUBKTNV-1" source="rzwKQrilAwkcrNIspmXl-9" target="rzwKQrilAwkcrNIspmXl-19">
          <mxGeometry relative="1" as="geometry" />
        </mxCell>
        <mxCell id="rzwKQrilAwkcrNIspmXl-9" value="&lt;b&gt;Fit &lt;/b&gt;model on training data (&lt;i&gt;model.fit(Xtrain,ytrain)&lt;/i&gt;)" style="rounded=0;whiteSpace=wrap;html=1;" vertex="1" parent="WIyWlLk6GJQsqaUBKTNV-1">
          <mxGeometry x="70" y="400" width="190" height="60" as="geometry" />
        </mxCell>
        <mxCell id="rzwKQrilAwkcrNIspmXl-25" value="" style="edgeStyle=orthogonalEdgeStyle;rounded=0;orthogonalLoop=1;jettySize=auto;html=1;" edge="1" parent="WIyWlLk6GJQsqaUBKTNV-1" source="rzwKQrilAwkcrNIspmXl-12" target="rzwKQrilAwkcrNIspmXl-23">
          <mxGeometry relative="1" as="geometry" />
        </mxCell>
        <mxCell id="rzwKQrilAwkcrNIspmXl-12" value="&lt;i&gt;do_Kfold(X,y)&lt;/i&gt;" style="rounded=0;whiteSpace=wrap;html=1;" vertex="1" parent="WIyWlLk6GJQsqaUBKTNV-1">
          <mxGeometry x="554" y="290" width="226" height="60" as="geometry" />
        </mxCell>
        <mxCell id="rzwKQrilAwkcrNIspmXl-15" value="" style="edgeStyle=orthogonalEdgeStyle;rounded=0;orthogonalLoop=1;jettySize=auto;html=1;" edge="1" parent="WIyWlLk6GJQsqaUBKTNV-1" source="rzwKQrilAwkcrNIspmXl-6" target="rzwKQrilAwkcrNIspmXl-14">
          <mxGeometry relative="1" as="geometry">
            <mxPoint x="354" y="320" as="sourcePoint" />
            <mxPoint x="210" y="320" as="targetPoint" />
          </mxGeometry>
        </mxCell>
        <mxCell id="rzwKQrilAwkcrNIspmXl-18" value="" style="edgeStyle=orthogonalEdgeStyle;rounded=0;orthogonalLoop=1;jettySize=auto;html=1;" edge="1" parent="WIyWlLk6GJQsqaUBKTNV-1" source="rzwKQrilAwkcrNIspmXl-14" target="rzwKQrilAwkcrNIspmXl-9">
          <mxGeometry relative="1" as="geometry" />
        </mxCell>
        <mxCell id="rzwKQrilAwkcrNIspmXl-14" value="&lt;i&gt;Xtrain, Xtest, ytrain, ytest = tts(X,y)&lt;/i&gt;" style="rounded=0;whiteSpace=wrap;html=1;" vertex="1" parent="WIyWlLk6GJQsqaUBKTNV-1">
          <mxGeometry x="70" y="290" width="190" height="60" as="geometry" />
        </mxCell>
        <mxCell id="rzwKQrilAwkcrNIspmXl-16" value="No Cross-Validation" style="rounded=1;whiteSpace=wrap;html=1;" vertex="1" parent="WIyWlLk6GJQsqaUBKTNV-1">
          <mxGeometry x="105" y="240" width="120" height="40" as="geometry" />
        </mxCell>
        <mxCell id="rzwKQrilAwkcrNIspmXl-17" value="Cross-Validation" style="rounded=1;whiteSpace=wrap;html=1;" vertex="1" parent="WIyWlLk6GJQsqaUBKTNV-1">
          <mxGeometry x="607" y="240" width="120" height="40" as="geometry" />
        </mxCell>
        <mxCell id="rzwKQrilAwkcrNIspmXl-22" value="" style="edgeStyle=orthogonalEdgeStyle;rounded=0;orthogonalLoop=1;jettySize=auto;html=1;" edge="1" parent="WIyWlLk6GJQsqaUBKTNV-1" source="rzwKQrilAwkcrNIspmXl-19" target="rzwKQrilAwkcrNIspmXl-21">
          <mxGeometry relative="1" as="geometry" />
        </mxCell>
        <mxCell id="rzwKQrilAwkcrNIspmXl-19" value="&lt;b&gt;Predict &lt;/b&gt;target values of test feature values (&lt;i&gt;predictions=model.predict(Xtest)&lt;/i&gt;)" style="rounded=0;whiteSpace=wrap;html=1;" vertex="1" parent="WIyWlLk6GJQsqaUBKTNV-1">
          <mxGeometry x="70" y="490" width="190" height="60" as="geometry" />
        </mxCell>
        <mxCell id="rzwKQrilAwkcrNIspmXl-21" value="Calculate &lt;b&gt;Mean Squared Error (MSE)&lt;/b&gt; of predictions (&lt;i&gt;mse(predictions,ytest)&lt;/i&gt;)" style="rounded=0;whiteSpace=wrap;html=1;" vertex="1" parent="WIyWlLk6GJQsqaUBKTNV-1">
          <mxGeometry x="70" y="570" width="190" height="60" as="geometry" />
        </mxCell>
        <mxCell id="rzwKQrilAwkcrNIspmXl-24" style="edgeStyle=orthogonalEdgeStyle;rounded=0;orthogonalLoop=1;jettySize=auto;html=1;exitX=0;exitY=0.5;exitDx=0;exitDy=0;" edge="1" parent="WIyWlLk6GJQsqaUBKTNV-1" source="rzwKQrilAwkcrNIspmXl-23">
          <mxGeometry relative="1" as="geometry">
            <mxPoint x="280" y="480" as="targetPoint" />
          </mxGeometry>
        </mxCell>
        <mxCell id="rzwKQrilAwkcrNIspmXl-23" value="The do_Kfold function implicitly runs all of these steps for each iteration of the cross-validation and returns the average MSE of all iterations, so you&#39;re done!&amp;nbsp;" style="ellipse;whiteSpace=wrap;html=1;" vertex="1" parent="WIyWlLk6GJQsqaUBKTNV-1">
          <mxGeometry x="527.5" y="400" width="279" height="160" as="geometry" />
        </mxCell>
      </root>
    </mxGraphModel>
  </diagram>
</mxfile>
